<svg xmlns="http://www.w3.org/2000/svg" viewBox="0 0 512 512" width="512" height="512">
    <rect width="512" height="512" rx="64" fill="#1a1a2e"/>
    <rect x="48" y="48" width="416" height="416" rx="40" fill="#252547"/>
    <path d="M128 256 h256 M128 256 a128 128 0 0 1 88-88 a128 128 0 0 1 80 0 a128 128 0 0 1 48 88 M128 256 a128 128 0 0 0 88 88 a128 128 0 0 0 80 0 a128 128 0 0 0 48-88"
          stroke="#6366f1" stroke-width="20" fill="none" stroke-linecap="round"/>
    <circle cx="256" cy="180" r="12" fill="#818cf8"/>
    <circle cx="256" cy="332" r="12" fill="#818cf8"/>
    <text x="256" y="455" text-anchor="middle" font-family="system-ui" font-size="52" font-weight="bold" fill="#818cf8">GSM</text>
</svg>
