<svg xmlns="http://www.w3.org/2000/svg" viewBox="0 0 192 192" width="192" height="192">
    <rect width="192" height="192" rx="24" fill="#1a1a2e"/>
    <rect x="20" y="20" width="152" height="152" rx="16" fill="#252547"/>
    <path d="M48 96 h96 M48 96 a48 48 0 0 1 32-32 a48 48 0 0 1 32 0 a48 48 0 0 1 16 32 M48 96 a48 48 0 0 0 32 32 a48 48 0 0 0 32 0 a48 48 0 0 0 16-32"
          stroke="#6366f1" stroke-width="8" fill="none" stroke-linecap="round"/>
    <circle cx="96" cy="68" r="4" fill="#818cf8"/>
    <circle cx="96" cy="124" r="4" fill="#818cf8"/>
    <text x="96" y="170" text-anchor="middle" font-family="system-ui" font-size="18" font-weight="bold" fill="#818cf8">GSM</text>
</svg>
