<?xml version="1.0" encoding="UTF-8"?>
<svg xmlns="http://www.w3.org/2000/svg" viewBox="0 0 512 512" width="512" height="512">
  <defs>
    <linearGradient id="bg" x1="0%" y1="0%" x2="100%" y2="100%">
      <stop offset="0%" stop-color="#1a1816"/>
      <stop offset="100%" stop-color="#0d0c0a"/>
    </linearGradient>
    <linearGradient id="accent" x1="0%" y1="0%" x2="100%" y2="100%">
      <stop offset="0%" stop-color="#e2a84b"/>
      <stop offset="100%" stop-color="#c4923f"/>
    </linearGradient>
    <filter id="glow" x="-20%" y="-20%" width="140%" height="140%">
      <feGaussianBlur stdDeviation="6" result="blur"/>
      <feComposite in="SourceGraphic" in2="blur" operator="over"/>
    </filter>
  </defs>

  <!-- Rounded background -->
  <rect x="16" y="16" width="480" height="480" rx="96" fill="url(#bg)" stroke="#2e2b28" stroke-width="8"/>

  <!-- Outer accent ring -->
  <rect x="36" y="36" width="440" height="440" rx="80" fill="none" stroke="url(#accent)" stroke-width="6" opacity="0.9"/>

  <!-- Server rack body -->
  <rect x="126" y="126" width="260" height="260" rx="28" fill="#151512" stroke="#2e2b28" stroke-width="4"/>

  <!-- Server slots -->
  <rect x="154" y="166" width="204" height="54" rx="12" fill="#1f1d1a" stroke="#2e2b28" stroke-width="3"/>
  <rect x="154" y="242" width="204" height="54" rx="12" fill="#1f1d1a" stroke="#2e2b28" stroke-width="3"/>
  <rect x="154" y="318" width="204" height="54" rx="12" fill="#1f1d1a" stroke="#2e2b28" stroke-width="3"/>

  <!-- Status LEDs -->
  <circle cx="182" cy="193" r="10" fill="url(#accent)" filter="url(#glow)"/>
  <circle cx="182" cy="269" r="10" fill="#5e8a6c"/>
  <circle cx="182" cy="345" r="10" fill="#5c8aa3"/>

  <!-- Vent/slot lines -->
  <line x1="216" y1="193" x2="328" y2="193" stroke="#2e2b28" stroke-width="4" stroke-linecap="round"/>
  <line x1="216" y1="269" x2="328" y2="269" stroke="#2e2b28" stroke-width="4" stroke-linecap="round"/>
  <line x1="216" y1="345" x2="328" y2="345" stroke="#2e2b28" stroke-width="4" stroke-linecap="round"/>

  <!-- GSM monogram -->
  <text x="256" y="452" font-family="-apple-system, BlinkMacSystemFont, 'Segoe UI', Roboto, Helvetica, Arial, sans-serif" font-size="64" font-weight="700" text-anchor="middle" fill="url(#accent)" letter-spacing="4">GSM</text>
</svg>
